<svg width="20" height="20" viewBox="0 0 20 20" fill="none" xmlns="http://www.w3.org/2000/svg">
  <path
    d="M10.0625 14.1667C10.2431 14.1667 10.3924 14.1077 10.5104 13.9896C10.6285 13.8715 10.6875 13.7222 10.6875 13.5417V10.7084H13.5625C13.7292 10.7084 13.8715 10.6493 13.9896 10.5313C14.1076 10.4132 14.1667 10.2639 14.1667 10.0834C14.1667 9.9028 14.1076 9.75349 13.9896 9.63544C13.8715 9.51738 13.7222 9.45835 13.5417 9.45835H10.6875V6.43752C10.6875 6.27085 10.6285 6.12849 10.5104 6.01044C10.3924 5.89238 10.2431 5.83335 10.0625 5.83335C9.88195 5.83335 9.73264 5.89238 9.61459 6.01044C9.49653 6.12849 9.4375 6.2778 9.4375 6.45835V9.45835H6.4375C6.27084 9.45835 6.12848 9.51738 6.01042 9.63544C5.89237 9.75349 5.83334 9.9028 5.83334 10.0834C5.83334 10.2639 5.89237 10.4132 6.01042 10.5313C6.12848 10.6493 6.27778 10.7084 6.45834 10.7084H9.4375V13.5625C9.4375 13.7292 9.49653 13.8715 9.61459 13.9896C9.73264 14.1077 9.88195 14.1667 10.0625 14.1667ZM10 18.3334C8.81945 18.3334 7.72223 18.1215 6.70834 17.6979C5.69445 17.2743 4.81251 16.6875 4.06251 15.9375C3.31251 15.1875 2.7257 14.3056 2.30209 13.2917C1.87848 12.2778 1.66667 11.1806 1.66667 10C1.66667 8.83335 1.87848 7.74308 2.30209 6.72919C2.7257 5.7153 3.31251 4.83335 4.06251 4.08335C4.81251 3.33335 5.69445 2.74308 6.70834 2.31252C7.72223 1.88196 8.81945 1.66669 10 1.66669C11.1667 1.66669 12.2569 1.88196 13.2708 2.31252C14.2847 2.74308 15.1667 3.33335 15.9167 4.08335C16.6667 4.83335 17.2569 5.7153 17.6875 6.72919C18.1181 7.74308 18.3333 8.83335 18.3333 10C18.3333 11.1806 18.1181 12.2778 17.6875 13.2917C17.2569 14.3056 16.6667 15.1875 15.9167 15.9375C15.1667 16.6875 14.2847 17.2743 13.2708 17.6979C12.2569 18.1215 11.1667 18.3334 10 18.3334ZM10 17.0834C11.9444 17.0834 13.6111 16.3889 15 15C16.3889 13.6111 17.0833 11.9445 17.0833 10C17.0833 8.05558 16.3889 6.38891 15 5.00002C13.6111 3.61113 11.9444 2.91669 10 2.91669C8.05556 2.91669 6.38889 3.61113 5.00001 5.00002C3.61112 6.38891 2.91667 8.05558 2.91667 10C2.91667 11.9445 3.61112 13.6111 5.00001 15C6.38889 16.3889 8.05556 17.0834 10 17.0834Z"
    fill="#2C2F42" />
</svg>
  