<svg width="20" height="20" viewBox="0 0 20 20" fill="none" xmlns="http://www.w3.org/2000/svg">
  <path
    d="M6.54167 14.2292C6.72222 14.2292 6.87153 14.1701 6.98958 14.0521C7.10764 13.934 7.16667 13.7847 7.16667 13.6042V9.125C7.16667 8.94444 7.10764 8.79514 6.98958 8.67708C6.87153 8.55903 6.72222 8.5 6.54167 8.5C6.36111 8.5 6.21181 8.55903 6.09375 8.67708C5.97569 8.79514 5.91667 8.94444 5.91667 9.125V13.6042C5.91667 13.7847 5.97569 13.934 6.09375 14.0521C6.21181 14.1701 6.36111 14.2292 6.54167 14.2292ZM10 14.2292C10.1806 14.2292 10.3299 14.1701 10.4479 14.0521C10.566 13.934 10.625 13.7847 10.625 13.6042V6.39583C10.625 6.21528 10.566 6.06597 10.4479 5.94792C10.3299 5.82986 10.1806 5.77083 10 5.77083C9.81944 5.77083 9.67014 5.82986 9.55208 5.94792C9.43403 6.06597 9.375 6.21528 9.375 6.39583V13.6042C9.375 13.7847 9.43403 13.934 9.55208 14.0521C9.67014 14.1701 9.81944 14.2292 10 14.2292ZM13.4583 14.2292C13.6389 14.2292 13.7882 14.1701 13.9062 14.0521C14.0243 13.934 14.0833 13.7847 14.0833 13.6042V11.7708C14.0833 11.5903 14.0243 11.441 13.9062 11.3229C13.7882 11.2049 13.6389 11.1458 13.4583 11.1458C13.2778 11.1458 13.1285 11.2049 13.0104 11.3229C12.8924 11.441 12.8333 11.5903 12.8333 11.7708V13.6042C12.8333 13.7847 12.8924 13.934 13.0104 14.0521C13.1285 14.1701 13.2778 14.2292 13.4583 14.2292ZM3.75 17.5C3.41667 17.5 3.125 17.375 2.875 17.125C2.625 16.875 2.5 16.5833 2.5 16.25V3.75C2.5 3.41667 2.625 3.125 2.875 2.875C3.125 2.625 3.41667 2.5 3.75 2.5H16.25C16.5833 2.5 16.875 2.625 17.125 2.875C17.375 3.125 17.5 3.41667 17.5 3.75V16.25C17.5 16.5833 17.375 16.875 17.125 17.125C16.875 17.375 16.5833 17.5 16.25 17.5H3.75Z"
    fill="#2C2F42" />
</svg>
  