<svg width="20" height="20" viewBox="0 0 20 20" fill="none" xmlns="http://www.w3.org/2000/svg">
  <path
    d="M4.58334 17.5C4.23612 17.5 3.94098 17.3785 3.69793 17.1354C3.45487 16.8924 3.33334 16.5972 3.33334 16.25V8.125C3.33334 7.93056 3.37848 7.74306 3.46876 7.5625C3.55904 7.38194 3.68057 7.23611 3.83334 7.125L9.25001 3.0625C9.36112 2.97917 9.47918 2.91667 9.60418 2.875C9.72918 2.83333 9.86112 2.8125 10 2.8125C10.1389 2.8125 10.2708 2.83333 10.3958 2.875C10.5208 2.91667 10.6389 2.97917 10.75 3.0625L16.1667 7.125C16.3195 7.23611 16.441 7.38194 16.5313 7.5625C16.6215 7.74306 16.6667 7.93056 16.6667 8.125V16.25C16.6667 16.5972 16.5451 16.8924 16.3021 17.1354C16.059 17.3785 15.7639 17.5 15.4167 17.5H11.6667V11.6667H8.33334V17.5H4.58334Z"
    fill="#2C2F42" />
</svg>
  