<svg width="20" height="20" viewBox="0 0 20 20" fill="none" xmlns="http://www.w3.org/2000/svg">
  <path
    d="M3.95834 15.8334C3.77778 15.8334 3.62847 15.7743 3.51042 15.6563C3.39236 15.5382 3.33334 15.3889 3.33334 15.2084C3.33334 15.0278 3.39236 14.8785 3.51042 14.7604C3.62847 14.6424 3.77778 14.5834 3.95834 14.5834H5.08334V8.20835C5.08334 7.06947 5.42709 6.03821 6.11459 5.1146C6.80209 4.19099 7.70834 3.61113 8.83334 3.37502V2.77085C8.83334 2.45141 8.94792 2.18752 9.17709 1.97919C9.40625 1.77085 9.68056 1.66669 10 1.66669C10.3194 1.66669 10.5938 1.77085 10.8229 1.97919C11.0521 2.18752 11.1667 2.45141 11.1667 2.77085V3.37502C12.2917 3.61113 13.2014 4.19099 13.8958 5.1146C14.5903 6.03821 14.9375 7.06947 14.9375 8.20835V14.5834H16.0417C16.2222 14.5834 16.3715 14.6424 16.4896 14.7604C16.6076 14.8785 16.6667 15.0278 16.6667 15.2084C16.6667 15.3889 16.6076 15.5382 16.4896 15.6563C16.3715 15.7743 16.2222 15.8334 16.0417 15.8334H3.95834ZM10 18.3334C9.55556 18.3334 9.16667 18.1702 8.83334 17.8438C8.5 17.5174 8.33334 17.125 8.33334 16.6667H11.6667C11.6667 17.125 11.5035 17.5174 11.1771 17.8438C10.8507 18.1702 10.4583 18.3334 10 18.3334ZM6.33334 14.5834H13.6875V8.20835C13.6875 7.16669 13.3368 6.28821 12.6354 5.57294C11.934 4.85766 11.0694 4.50002 10.0417 4.50002C9 4.50002 8.12153 4.85766 7.40625 5.57294C6.69097 6.28821 6.33334 7.16669 6.33334 8.20835V14.5834Z"
    fill="#2C2F42" />
</svg>
  