<svg width="20" height="20" viewBox="0 0 20 20" fill="none" xmlns="http://www.w3.org/2000/svg">
  <path
    d="M3.20833 8.18746C3.02778 8.18746 2.87847 8.12496 2.76042 7.99996C2.64236 7.87496 2.59028 7.72913 2.60417 7.56246C2.67361 6.65968 2.89931 5.80204 3.28125 4.98954C3.6632 4.17704 4.18056 3.45829 4.83333 2.83329C4.95833 2.72218 5.11111 2.6701 5.29167 2.67704C5.47222 2.68399 5.625 2.7569 5.75 2.89579C5.86111 3.02079 5.9132 3.16663 5.90625 3.33329C5.89931 3.49996 5.83333 3.64579 5.70833 3.77079C5.18056 4.28468 4.76042 4.86454 4.44792 5.51038C4.13542 6.15621 3.94445 6.84024 3.875 7.56246C3.84722 7.74301 3.77083 7.89232 3.64583 8.01038C3.52083 8.12843 3.375 8.18746 3.20833 8.18746ZM16.8125 8.18746C16.6458 8.18746 16.5035 8.12843 16.3854 8.01038C16.2674 7.89232 16.1944 7.74301 16.1667 7.56246C16.0972 6.84024 15.9097 6.15621 15.6042 5.51038C15.2986 4.86454 14.8889 4.28468 14.375 3.77079C14.25 3.64579 14.184 3.49996 14.1771 3.33329C14.1701 3.16663 14.2222 3.02079 14.3333 2.89579C14.4583 2.7569 14.6076 2.68399 14.7812 2.67704C14.9549 2.6701 15.1042 2.72913 15.2292 2.85413C15.8681 3.49301 16.375 4.21176 16.75 5.01038C17.125 5.80899 17.3472 6.65968 17.4167 7.56246C17.4306 7.72913 17.3785 7.87496 17.2604 7.99996C17.1424 8.12496 16.9931 8.18746 16.8125 8.18746ZM3.95833 15.8333C3.77778 15.8333 3.62847 15.7743 3.51042 15.6562C3.39236 15.5382 3.33333 15.3888 3.33333 15.2083C3.33333 15.0277 3.39236 14.8784 3.51042 14.7604C3.62847 14.6423 3.77778 14.5833 3.95833 14.5833H5.08333V8.20829C5.08333 7.0694 5.42708 6.03815 6.11458 5.11454C6.80208 4.19093 7.70833 3.61107 8.83333 3.37496V2.77079C8.83333 2.45135 8.94792 2.18746 9.17708 1.97913C9.40625 1.77079 9.68056 1.66663 10 1.66663C10.3194 1.66663 10.5938 1.77079 10.8229 1.97913C11.0521 2.18746 11.1667 2.45135 11.1667 2.77079V3.37496C12.2917 3.61107 13.2014 4.19093 13.8958 5.11454C14.5903 6.03815 14.9375 7.0694 14.9375 8.20829V14.5833H16.0417C16.2222 14.5833 16.3715 14.6423 16.4896 14.7604C16.6076 14.8784 16.6667 15.0277 16.6667 15.2083C16.6667 15.3888 16.6076 15.5382 16.4896 15.6562C16.3715 15.7743 16.2222 15.8333 16.0417 15.8333H3.95833ZM10 18.3333C9.55556 18.3333 9.16667 18.1701 8.83333 17.8437C8.5 17.5173 8.33333 17.125 8.33333 16.6666H11.6667C11.6667 17.125 11.5035 17.5173 11.1771 17.8437C10.8507 18.1701 10.4583 18.3333 10 18.3333Z"
    fill="#2C2F42" />
</svg>
  