<svg width="20" height="20" viewBox="0 0 20 20" fill="none" xmlns="http://www.w3.org/2000/svg">
  <path
    d="M9.99999 11.1875C9.40277 11.1875 8.90277 10.9722 8.49999 10.5417C8.09722 10.1111 7.89583 9.5903 7.89583 8.97919V3.75002C7.89583 3.16669 8.10069 2.67363 8.51041 2.27085C8.92013 1.86808 9.41666 1.66669 9.99999 1.66669C10.5833 1.66669 11.0799 1.86808 11.4896 2.27085C11.8993 2.67363 12.1042 3.16669 12.1042 3.75002V8.97919C12.1042 9.5903 11.9028 10.1111 11.5 10.5417C11.0972 10.9722 10.5972 11.1875 9.99999 11.1875ZM9.99999 17.5C9.81944 17.5 9.67013 17.441 9.55208 17.3229C9.43402 17.2049 9.37499 17.0556 9.37499 16.875V14.6667C8.01388 14.5139 6.85069 13.9688 5.88541 13.0313C4.92013 12.0938 4.3611 10.9653 4.20833 9.64585C4.18055 9.4653 4.23263 9.30905 4.36458 9.1771C4.49652 9.04516 4.65972 8.97919 4.85416 8.97919C5.00694 8.97919 5.13888 9.03474 5.24999 9.14585C5.3611 9.25697 5.43055 9.38891 5.45833 9.54169C5.6111 10.6667 6.11805 11.6007 6.97916 12.3438C7.84027 13.0868 8.84722 13.4584 9.99999 13.4584C11.1528 13.4584 12.1597 13.0868 13.0208 12.3438C13.8819 11.6007 14.3889 10.6667 14.5417 9.54169C14.5694 9.38891 14.6424 9.25697 14.7604 9.14585C14.8785 9.03474 15.0139 8.97919 15.1667 8.97919C15.3611 8.97919 15.5208 9.04516 15.6458 9.1771C15.7708 9.30905 15.8194 9.4653 15.7917 9.64585C15.6389 10.9653 15.0799 12.0938 14.1146 13.0313C13.1493 13.9688 11.9861 14.5139 10.625 14.6667V16.875C10.625 17.0556 10.566 17.2049 10.4479 17.3229C10.3299 17.441 10.1805 17.5 9.99999 17.5ZM9.99999 9.93752C10.25 9.93752 10.4549 9.84377 10.6146 9.65627C10.7743 9.46877 10.8542 9.24308 10.8542 8.97919V3.75002C10.8542 3.51391 10.7708 3.31599 10.6042 3.15627C10.4375 2.99655 10.2361 2.91669 9.99999 2.91669C9.76388 2.91669 9.56249 2.99655 9.39583 3.15627C9.22916 3.31599 9.14583 3.51391 9.14583 3.75002V8.97919C9.14583 9.24308 9.22569 9.46877 9.38541 9.65627C9.54513 9.84377 9.74999 9.93752 9.99999 9.93752Z"
    fill="#2C2F42" />
</svg>
  